<svg version="1.1" id="Layer_1" xmlns="http://www.w3.org/2000/svg" xmlns:xlink="http://www.w3.org/1999/xlink" x="0px" y="0px"
	 width="100%" viewBox="0 0 736 736" enable-background="new 0 0 736 736" xml:space="preserve">
<path fill="#000000" opacity="1.000000" stroke="none" 
	d="
M541.697144,322.605103 
	C526.461792,348.127594 504.544678,363.447723 474.228455,368.907257 
	C478.411957,369.923981 481.337097,370.593903 484.240753,371.346741 
	C525.235718,381.975647 552.722168,418.210846 553.524292,460.307312 
	C554.346680,503.464996 522.775513,542.585938 481.263214,551.484985 
	C475.875458,552.639954 470.466431,553.394043 464.931793,553.391174 
	C404.274719,553.359924 343.617493,553.312927 282.960907,553.483582 
	C277.823303,553.498047 276.512817,551.911865 276.555023,546.951477 
	C276.777618,520.790771 276.664001,494.627258 276.660126,468.464722 
	C276.659088,461.392578 276.648163,461.382935 269.379913,461.382202 
	C243.384033,461.379578 217.388138,461.387085 191.392258,461.383881 
	C184.693375,461.383057 184.664429,461.371460 184.661591,454.916931 
	C184.649857,428.254486 184.794739,401.590729 184.539017,374.930725 
	C184.489136,369.732208 186.186127,368.520996 191.095947,368.560883 
	C217.256729,368.773315 243.420181,368.664276 269.582703,368.653351 
	C276.100769,368.650635 276.616577,368.216675 276.629517,361.508972 
	C276.680054,335.346558 276.574310,309.183441 276.738678,283.021942 
	C276.766296,278.624847 275.300720,277.272400 270.963409,277.298157 
	C244.468521,277.455383 217.972260,277.383514 191.476456,277.381927 
	C184.681946,277.381531 184.659683,277.371429 184.657547,270.488647 
	C184.649292,243.826202 184.753418,217.163071 184.565292,190.501968 
	C184.532837,185.904633 185.957184,184.541962 190.514145,184.572067 
	C217.675323,184.751495 244.839096,184.765030 271.999908,184.559402 
	C276.692230,184.523895 278.042358,186.124390 278.019928,190.581665 
	C277.888184,216.743423 277.945618,242.906189 277.963531,269.068604 
	C277.968719,276.653503 278.005219,276.657715 285.717621,276.658051 
	C310.547028,276.659088 335.376434,276.660004 360.205841,276.653870 
	C368.632019,276.651794 368.648010,276.642120 368.651154,267.958344 
	C368.660461,242.295731 368.793091,216.631790 368.541138,190.971649 
	C368.490662,185.831161 370.091827,184.522308 375.060333,184.557755 
	C404.387543,184.767044 433.725708,184.207428 463.043488,184.773590 
	C499.654205,185.480560 526.806091,203.004990 543.413025,235.104401 
	C558.322083,263.921906 557.144348,293.486420 541.697144,322.605103 
M278.203094,372.185028 
	C278.130432,399.660309 278.151733,427.136414 277.897614,454.610016 
	C277.852417,459.494415 279.572174,460.784454 284.268463,460.748505 
	C309.748962,460.553467 335.231781,460.661774 360.713776,460.652069 
	C368.252136,460.649200 368.626617,460.328461 368.636505,452.815399 
	C368.670013,427.333466 368.659210,401.851410 368.642242,376.369415 
	C368.638153,370.184540 367.917908,369.411285 361.804962,369.402710 
	C336.156464,369.366730 310.507904,369.375336 284.859344,369.393066 
	C282.557800,369.394653 280.120697,369.145203 278.203094,372.185028 
z"/>
</svg>